<svg xmlns="http://www.w3.org/2000/svg"
    xmlns:xlink="http://www.w3.org/1999/xlink" width="758.063"
    height="870.879" viewBox="0 0 758.063 870.879">

    <g id="Group_41" transform="translate(-530.427 -563.069)" opacity="0.2">
        <g id="Group_33" transform="translate(662.545 695.189)">
            <path id="Path_107"
                d="M1095.273,685.256c-94.508-89.481-244.253-87.922-336.883,4.708a240.414,240.414,0,0,0-42.707,57.99l-.183.183c-90.013,90.013-90.013,236.456,0,326.469a41.136,41.136,0,0,1-58.177,58.174c-122.087-122.087-122.087-320.728,0-442.816C777.824,569.462,972.841,567.9,1095.273,685.256Z"
                transform="translate(-565.757 -598.399)" fill="#dadada" />
        </g>
        <g id="Group_34" transform="translate(784.473 716.088)">
            <path id="Path_108"
                d="M1010.814,674.653c.5.5,1.006,1.006,1.481,1.533,120.607,122.192,120.105,319.7-1.481,441.282L818.493,1309.79a41.136,41.136,0,0,1-58.174-58.177L952.641,1059.3c90.012-90.013,90.012-236.456,0-326.469-1.085-1.084-2.169-2.116-3.28-3.171-62.351-58.97-161.065-57.885-222.122,3.171a160.056,160.056,0,0,0-41.251,154A41.133,41.133,0,1,1,606.5,908.039a242.283,242.283,0,0,1,62.564-233.386c92.63-92.63,242.376-94.189,336.883-4.708C1007.591,671.478,1009.229,673.068,1010.814,674.653Z"
                transform="translate(-598.361 -603.987)" fill="#dadada" />
        </g>
        <g id="Group_35" transform="translate(530.427 563.069)">
            <path id="Path_109"
                d="M1216.653,681.615a41.624,41.624,0,0,1-6.32,8.119A41.11,41.11,0,0,1,1160.278,696a362.775,362.775,0,0,0-496.92,496.917,41.123,41.123,0,1,1-70.735,41.966c-103.681-174.816-75.6-397.413,68.3-541.317s366.5-171.985,541.317-68.3A41.1,41.1,0,0,1,1216.653,681.615Z"
                transform="translate(-530.427 -563.069)" fill="#dadada" />
        </g>

            <g id="Group_37">
                <g id="Group_36">
                    <path id="Path_110"
                        d="M706.773,621.088l.662.658a5.755,5.755,0,0,0,.636.531A13.582,13.582,0,0,0,706.773,621.088Z"
                        transform="translate(-261.448 -550.295)" fill="#dadada" />
                    <path id="Path_111"
                        d="M1033.015,672.95c-2.749-2.539-5.523-5-8.354-7.352-3.04-2.618-6.137-5.078-9.308-7.457-4.734-3.624-9.547-7.008-14.491-10.209-3.28-2.166-6.612-4.229-9.97-6.159-6.267-3.676-12.692-7.034-19.2-10.048a24.047,24.047,0,0,0-2.221-1.006c-3.175-1.481-6.346-2.853-9.6-4.151-1.825-.767-3.676-1.455-5.527-2.143-1.8-.688-3.6-1.32-5.4-1.956-3.62-1.294-7.244-2.431-10.919-3.515-1.825-.557-3.65-1.058-5.5-1.537-1.825-.5-3.65-1-5.5-1.425-1.851-.479-3.7-.9-5.579-1.3q-3.495-.791-6.982-1.429c-1.4-.288-2.779-.553-4.177-.74-1.851-.37-3.7-.632-5.609-.9a232.935,232.935,0,0,0-32.946-2.592q-2.895-.039-5.71,0a237.379,237.379,0,0,0-34.087,2.831c-1.877.288-3.781.606-5.658.95-1.851.318-3.755.688-5.606,1.058a247.686,247.686,0,0,0-34.008,9.521c-1.69.632-3.384,1.268-5.048,1.93a235.18,235.18,0,0,0-21.5,9.543c-1.586.8-3.175,1.642-4.734,2.46-3.594,1.9-7.113,3.885-10.6,6-1.533.9-3.066,1.851-4.548,2.8a241,241,0,0,0-84.646,91.52l-.183.183a230,230,0,0,0-67.037,148.321,264.5,264.5,0,0,1,76.819-206.494c100.113-100.113,261.044-103.236,364.968-9.416l.026.03C1031.164,671.151,1032.091,672.023,1033.015,672.95Z"
                        transform="translate(-587.69 -602.158)" fill="#dadada" />
                </g>
            </g>

            <g id="Group_39">
                <path id="Path_112"
                    d="M1155.184,649.368a42.143,42.143,0,0,1-5.131,6.241A41.11,41.11,0,0,1,1100,661.877,362.939,362.939,0,0,0,552.574,964.068c-2.752-100.326,34.057-201.55,110.45-277.943C797.01,552.138,1007.263,539.895,1155.184,649.368Z"
                    transform="translate(-552.431 -575.525)" fill="#dadada" />
            </g>
    </g>
</svg>
