<svg xmlns="http://www.w3.org/2000/svg" width="46" height="46" viewBox="0 0 46 46">
  <g id="Group_251" data-name="Group 251" transform="translate(-12460 -982)">
    <g id="Ellipse_16" data-name="Ellipse 16" transform="translate(12460 982)" fill="#008543" stroke="#707070" stroke-width="1">
      <circle cx="23" cy="23" r="23" stroke="none"/>
      <circle cx="23" cy="23" r="22.5" fill="none"/>
    </g>
    <path id="Path_265" data-name="Path 265" d="M12474.812,1016.225V988.638s14.121-2.757,14.511,5.987c.092,8.6-7.047,7.635-7.047,8.027,0,.261,7.7-.587,7.569,7.9S12474.812,1016.225,12474.812,1016.225Z" transform="translate(0.671 2.552)" fill="#fff" stroke="#fff" stroke-width="1"/>
    <path id="Path_266" data-name="Path 266" d="M12487.316,993.333s7.369-.43,7.311,4.485-7.311,4.3-7.311,4.3Z" transform="translate(-8.677 -0.072)" fill="#008543" stroke="#707070" stroke-width="1"/>
    <path id="Path_267" data-name="Path 267" d="M12487.316,993.333s7.369-.419,7.311,4.368-7.311,4.188-7.311,4.188Z" transform="translate(-8.677 14.295)" fill="#008543" stroke="#707070" stroke-width="1"/>
  </g>
</svg>
