<svg xmlns="http://www.w3.org/2000/svg" width="16.356" height="24.535" viewBox="0 0 16.356 24.535">
    <path id="map-marker"
        d="M12.267,8.178a3.94,3.94,0,0,0-1.2-2.891,3.94,3.94,0,0,0-2.891-1.2,3.94,3.94,0,0,0-2.891,1.2,3.94,3.94,0,0,0-1.2,2.891,3.94,3.94,0,0,0,1.2,2.891,3.94,3.94,0,0,0,2.891,1.2,3.94,3.94,0,0,0,2.891-1.2A3.94,3.94,0,0,0,12.267,8.178Zm4.089,0a6.723,6.723,0,0,1-.527,2.859L10.016,23.4a1.942,1.942,0,0,1-.759.831,2.068,2.068,0,0,1-2.156,0,1.836,1.836,0,0,1-.743-.831L.527,11.037A6.723,6.723,0,0,1,0,8.178,7.878,7.878,0,0,1,2.4,2.4,7.883,7.883,0,0,1,8.178,0,7.876,7.876,0,0,1,13.96,2.4a7.881,7.881,0,0,1,2.4,5.782Z"
        fill="#000000" />
</svg>
