<svg xmlns="http://www.w3.org/2000/svg" width="38" height="38" viewBox="0 0 38 38">
  <g id="Group_177" data-name="Group 177" transform="translate(0.115)">
    <rect id="Rectangle_2" data-name="Rectangle 2" width="38" height="38" rx="10" transform="translate(-0.115)" fill="#4ca243"/>
    <path id="phone" d="M17.78,14.042a4.168,4.168,0,0,1-.126.89,5.012,5.012,0,0,1-.265.865,3.387,3.387,0,0,1-1.54,1.338,4.9,4.9,0,0,1-2.349.644,5.04,5.04,0,0,1-.669-.044,5.12,5.12,0,0,1-.726-.158q-.4-.114-.594-.183t-.7-.259q-.5-.19-.619-.227a11.432,11.432,0,0,1-2.21-1.048,19.038,19.038,0,0,1-3.334-2.728A19.038,19.038,0,0,1,1.919,9.8,11.451,11.451,0,0,1,.871,7.59Q.833,7.476.644,6.971t-.259-.7q-.07-.2-.183-.594A5.234,5.234,0,0,1,.044,4.95,4.924,4.924,0,0,1,0,4.281,4.9,4.9,0,0,1,.644,1.932,3.387,3.387,0,0,1,1.982.392,5.03,5.03,0,0,1,2.847.126,4.163,4.163,0,0,1,3.738,0,.7.7,0,0,1,4,.038q.227.076.669.96.139.24.379.682t.442.8q.2.36.392.676.038.05.221.316a3.6,3.6,0,0,1,.272.448.815.815,0,0,1,.088.36,1.048,1.048,0,0,1-.36.631,6.169,6.169,0,0,1-.783.694,7.62,7.62,0,0,0-.783.669.962.962,0,0,0-.36.581.852.852,0,0,0,.063.284q.063.17.107.259t.177.3q.133.215.145.24a13.253,13.253,0,0,0,2.2,2.968,13.253,13.253,0,0,0,2.968,2.2q.025.013.24.145t.3.177a2.652,2.652,0,0,0,.259.107.868.868,0,0,0,.284.063.962.962,0,0,0,.581-.36,7.62,7.62,0,0,0,.669-.783,6.168,6.168,0,0,1,.694-.783,1.048,1.048,0,0,1,.631-.36.824.824,0,0,1,.36.088,3.517,3.517,0,0,1,.448.272q.265.183.316.221.316.19.676.392t.8.442q.442.24.682.379.884.442.96.669a.7.7,0,0,1,.038.265Z" transform="translate(9.994 10)" fill="#f1f1f1"/>
  </g>
</svg>
