<svg xmlns="http://www.w3.org/2000/svg" width="68.991" height="46" viewBox="0 0 68.991 46">
  <path id="car-sport" d="M69.871,32.657c-.517-5.808-1.37-6.941-1.693-7.366A9.381,9.381,0,0,0,65,22.991a.517.517,0,0,1-.131-.816,2.29,2.29,0,0,0,.652-1.8A2.339,2.339,0,0,0,63.17,18.25H60.927a2.442,2.442,0,0,0-.288.018,1.222,1.222,0,0,0-.2-.067c-1.329-2.807-3.146-6.651-6.916-8.527-5.587-2.78-15.887-2.924-17.9-2.924s-12.312.143-17.893,2.919c-3.77,1.877-5.587,5.72-6.916,8.527l-.012.022a.936.936,0,0,0-.194.049,2.443,2.443,0,0,0-.288-.018H8.072a2.339,2.339,0,0,0-2.351,2.124,2.29,2.29,0,0,0,.66,1.793.517.517,0,0,1-.131.816,9.471,9.471,0,0,0-3.179,2.3c-.323.431-1.174,1.556-1.693,7.366a51.42,51.42,0,0,0-.1,8.832,38.591,38.591,0,0,0,1.4,7.378,2.3,2.3,0,0,0,1.9,1.562v.029a2.3,2.3,0,0,0,2.3,2.3h8.051a2.3,2.3,0,0,0,2.3-2.3,10.916,10.916,0,0,0,3.011-.458,22.832,22.832,0,0,1,4.026-.705c4.385-.417,8.748-.562,11.365-.562,2.564,0,7.119.143,11.512.562a22.879,22.879,0,0,1,4.04.709,11.341,11.341,0,0,0,2.852.452,2.3,2.3,0,0,0,2.3,2.3h8.051a2.3,2.3,0,0,0,2.3-2.3v-.016a2.3,2.3,0,0,0,1.9-1.562,38.637,38.637,0,0,0,1.4-7.378A51.445,51.445,0,0,0,69.871,32.657ZM14.97,20.164c1.151-2.443,2.466-5.209,4.806-6.375,3.384-1.685,10.4-2.443,15.846-2.443s12.461.752,15.846,2.443c2.341,1.165,3.651,3.934,4.806,6.375l.143.313a1.151,1.151,0,0,1-1.069,1.642c-4.778-.131-14.841-.544-19.729-.544S20.67,22,15.888,22.128a1.151,1.151,0,0,1-1.069-1.642c.051-.106.1-.215.151-.323ZM16.685,31.61a61.4,61.4,0,0,1-7.454.44c-1.523,0-3.1-.431-3.388-1.789a4.23,4.23,0,0,1-.07-1.942c.09-.438.235-.756.953-.869,1.869-.288,2.913.074,5.972.975a13.909,13.909,0,0,1,4.326,2.022.681.681,0,0,1-.341,1.165ZM48.509,43.4c-1.891.215-5.675.137-12.843.137s-10.95.08-12.841-.137c-1.952-.217-4.441-2.063-2.742-3.707,1.131-1.084,3.77-1.9,7.284-2.351a52.993,52.993,0,0,1,8.282-.689,44.832,44.832,0,0,1,8.282.691c3.666.548,6.436,1.368,7.284,2.351,1.55,1.76-.761,3.478-2.711,3.715ZM65.4,30.261c-.288,1.364-1.869,1.789-3.388,1.789a65.535,65.535,0,0,1-7.6-.44c-.44-.041-.644-.814-.2-1.165a13.413,13.413,0,0,1,4.326-2.022c3.058-.9,4.823-1.261,6.338-.961a.829.829,0,0,1,.589.72,5.841,5.841,0,0,1-.07,2.081Z" transform="translate(-1.129 -6.75)" fill="#848484"/>
</svg>
