<svg xmlns="http://www.w3.org/2000/svg" width="46" height="46" viewBox="0 0 46 46">
  <g id="Group_268" data-name="Group 268" transform="translate(-12543 -1058)">
    <g id="Path_281" data-name="Path 281" transform="translate(12543 1058)" fill="#008543">
      <path d="M 23 45.5 C 19.96229934692383 45.5 17.0157299041748 44.90517044067383 14.24213981628418 43.73204040527344 C 11.56291007995605 42.59883117675781 9.156620025634766 40.97642135620117 7.090099811553955 38.9099006652832 C 5.023580074310303 36.84337997436523 3.401170015335083 34.43709182739258 2.267960071563721 31.75786018371582 C 1.09483003616333 28.9842700958252 0.5 26.03770065307617 0.5 23 C 0.5 19.96229934692383 1.09483003616333 17.0157299041748 2.267960071563721 14.24213981628418 C 3.401170015335083 11.56291007995605 5.023580074310303 9.156620025634766 7.090099811553955 7.090099811553955 C 9.156620025634766 5.023580074310303 11.56291007995605 3.401170015335083 14.24213981628418 2.267960071563721 C 17.0157299041748 1.09483003616333 19.96229934692383 0.5 23 0.5 C 26.03770065307617 0.5 28.9842700958252 1.09483003616333 31.75786018371582 2.267960071563721 C 34.43709182739258 3.401170015335083 36.84337997436523 5.023580074310303 38.9099006652832 7.090099811553955 C 40.97642135620117 9.156620025634766 42.59883117675781 11.56291007995605 43.73204040527344 14.24213981628418 C 44.90517044067383 17.0157299041748 45.5 19.96229934692383 45.5 23 C 45.5 26.03770065307617 44.90517044067383 28.9842700958252 43.73204040527344 31.75786018371582 C 42.59883117675781 34.43709182739258 40.97642135620117 36.84337997436523 38.9099006652832 38.9099006652832 C 36.84337997436523 40.97642135620117 34.43709182739258 42.59883117675781 31.75786018371582 43.73204040527344 C 28.9842700958252 44.90517044067383 26.03770065307617 45.5 23 45.5 Z" stroke="none"/>
      <path d="M 23 1 C 20.02957916259766 1 17.14854049682617 1.581539154052734 14.43691062927246 2.728458404541016 C 11.81729125976562 3.836471557617188 9.464408874511719 5.422889709472656 7.443649291992188 7.443649291992188 C 5.422889709472656 9.464408874511719 3.836471557617188 11.81729125976562 2.728458404541016 14.43691062927246 C 1.581539154052734 17.14854049682617 1 20.02957916259766 1 23 C 1 25.97042083740234 1.581539154052734 28.85145950317383 2.728458404541016 31.56309127807617 C 3.836471557617188 34.18270874023438 5.422889709472656 36.53559112548828 7.443649291992188 38.55635070800781 C 9.464408874511719 40.57711029052734 11.81729125976562 42.16352844238281 14.43691062927246 43.27154159545898 C 17.14854049682617 44.41846084594727 20.02957916259766 45 23 45 C 25.97042083740234 45 28.85145950317383 44.41846084594727 31.56309127807617 43.27154159545898 C 34.18270874023438 42.16352844238281 36.53559112548828 40.57711029052734 38.55635070800781 38.55635070800781 C 40.57711029052734 36.53559112548828 42.16352844238281 34.18270874023438 43.27154159545898 31.56309127807617 C 44.41846084594727 28.85145950317383 45 25.97042083740234 45 23 C 45 20.02957916259766 44.41846084594727 17.14854049682617 43.27154159545898 14.43691062927246 C 42.16352844238281 11.81729125976562 40.57711029052734 9.464408874511719 38.55635070800781 7.443649291992188 C 36.53559112548828 5.422889709472656 34.18270874023438 3.836471557617188 31.56309127807617 2.728458404541016 C 28.85145950317383 1.581539154052734 25.97042083740234 1 23 1 M 23 0 C 35.70254898071289 0 46 10.29745101928711 46 23 C 46 35.70254898071289 35.70254898071289 46 23 46 C 10.29745101928711 46 0 35.70254898071289 0 23 C 0 10.29745101928711 10.29745101928711 0 23 0 Z" stroke="none" fill="#707070"/>
    </g>
    <path id="Path_269" data-name="Path 269" d="M12576.8,1068.573h-8.777v4.676h8.777v4.968h-8.777v4.6h8.777v4.968h-13.372v-24.912h13.372Z" transform="translate(-4.11 5.67)" fill="#fff" stroke="#707070" stroke-width="1"/>
  </g>
</svg>
