<svg width="24" height="22" viewBox="0 0 24 22" fill="none" xmlns="http://www.w3.org/2000/svg">
    <path d="M11.9038 5.95215V11.9041H17.8558V9.52315H14.2848V5.95215H11.9038Z" fill="white" />
    <path
        d="M22.966 6.54337C22.2892 4.94304 21.2337 3.53114 19.8902 2.42917C18.5468 1.32719 16.9558 0.568151 15.254 0.217365C13.8299 -0.072455 12.3621 -0.072455 10.938 0.217365C8.51988 0.712834 6.34724 2.02866 4.78789 3.94209C3.22853 5.85552 2.37826 8.249 2.381 10.7174V10.7474H0L3.571 15.4794L7.142 10.7474H4.763V10.7184C4.75939 9.05826 5.25482 7.4354 6.185 6.06037C7.10159 4.69906 8.39969 3.63867 9.91653 3.01218C11.4334 2.38568 13.1014 2.22097 14.7115 2.53869C16.3216 2.85641 17.802 3.64243 18.9671 4.79816C20.1323 5.9539 20.9302 7.42792 21.261 9.03537C21.4856 10.1448 21.4856 11.288 21.261 12.3974C20.9316 13.9933 20.1421 15.4579 18.99 16.6104C18.2295 17.37 17.3302 17.9767 16.341 18.3974C15.8373 18.6104 15.3137 18.7732 14.778 18.8834C13.6692 19.1077 12.5268 19.1077 11.418 18.8834C10.3527 18.6653 9.34077 18.2395 8.44 17.6304C7.99505 17.3304 7.57982 16.9885 7.2 16.6094L5.52 18.2924C7.278 20.0487 9.59178 21.1395 12.0654 21.378C14.5389 21.6165 17.0185 20.988 19.0797 19.5998C21.1409 18.2117 22.6556 16.1504 23.3645 13.7686C24.0735 11.3868 23.9326 8.83272 22.966 6.54337Z"
        fill="white" />
</svg>
