<svg xmlns="http://www.w3.org/2000/svg" width="22" height="22" viewBox="0 0 22 22">
    <g id="Group_38" transform="translate(-319 -474)">
        <circle id="Ellipse_7" cx="11" cy="11" r="11" transform="translate(319 474)"
            fill="#4ca243" />
        <g id="bx-history" transform="translate(319.95 474.969)">
            <path id="Path_25" d="M18,12v3.073h3.073V13.844H19.229V12Z"
                transform="translate(-8.854 -4.427)" fill="#fff" />
            <path id="Path_26"
                d="M14.857,7.878a5.537,5.537,0,0,0-3.981-3.266,5.587,5.587,0,0,0-2.229,0,5.527,5.527,0,0,0-4.418,5.419v.016H3L4.844,12.49l1.844-2.443H5.459v-.015a4.276,4.276,0,0,1,.734-2.4,4.3,4.3,0,0,1,7.783,1.536,4.374,4.374,0,0,1,0,1.736A4.308,4.308,0,0,1,12.8,13.074,4.338,4.338,0,0,1,11.436,14a4.29,4.29,0,0,1-.807.251,4.374,4.374,0,0,1-1.735,0A4.276,4.276,0,0,1,7.356,13.6a4.343,4.343,0,0,1-.637-.525l-.869.869a5.533,5.533,0,0,0,9.007-6.066Z"
                transform="translate(0 0)" fill="#fff" />
        </g>
    </g>
</svg>
