<svg width="28" height="27" viewBox="0 0 28 27" fill="none" xmlns="http://www.w3.org/2000/svg">
<path d="M19.2246 13.4521C19.2246 14.5647 18.8947 15.6522 18.2766 16.5772C17.6585 17.5023 16.78 18.2232 15.7522 18.649C14.7244 19.0747 13.5934 19.1861 12.5022 18.9691C11.4111 18.752 10.4088 18.2163 9.62214 17.4296C8.83547 16.643 8.29974 15.6407 8.08269 14.5495C7.86565 13.4584 7.97705 12.3274 8.40279 11.2996C8.82853 10.2717 9.5495 9.39322 10.4745 8.77513C11.3996 8.15705 12.4871 7.82715 13.5996 7.82715C15.0915 7.82715 16.5222 8.41978 17.5771 9.47467C18.632 10.5296 19.2246 11.9603 19.2246 13.4521Z" fill="white"/>
<path d="M8.09977 7.90161C9.06608 6.9365 10.2667 6.23925 11.5839 5.8783C12.9011 5.51734 14.2894 5.5051 15.6128 5.84276C16.9361 6.18042 18.1488 6.85639 19.132 7.8043C20.1152 8.75222 20.835 9.9395 21.2208 11.2496H27.1328V3.30461C27.1386 2.86922 27.057 2.43709 26.8929 2.03377C26.7288 1.63045 26.4855 1.26412 26.1774 0.956462C25.8692 0.6488 25.5025 0.406047 25.099 0.242555C24.6954 0.0790637 24.2631 -0.00184641 23.8278 0.00460929H3.57977C2.6856 -0.0136278 1.82072 0.323576 1.17488 0.942238C0.529033 1.5609 0.154972 2.41049 0.134766 3.30461V11.2496H6.11677C6.48306 9.98346 7.16546 8.83133 8.09977 7.90161ZM24.8828 5.84961C24.8828 6.0883 24.7879 6.31722 24.6192 6.486C24.4504 6.65479 24.2215 6.74961 23.9828 6.74961H21.2828C21.0441 6.74961 20.8152 6.65479 20.6464 6.486C20.4776 6.31722 20.3828 6.0883 20.3828 5.84961V3.14961C20.3828 2.91091 20.4776 2.682 20.6464 2.51321C20.8152 2.34443 21.0441 2.24961 21.2828 2.24961H23.9828C24.2215 2.24961 24.4504 2.34443 24.6192 2.51321C24.7879 2.682 24.8828 2.91091 24.8828 3.14961V5.84961Z" fill="white"/>
<path d="M19.2388 19.039C17.7594 20.5101 15.7581 21.3363 13.6718 21.3373C11.5855 21.3382 9.58346 20.5138 8.10277 19.044C6.63549 17.571 5.80801 15.579 5.79977 13.5H0.134766V23.555C0.148945 24.4642 0.516452 25.3323 1.15947 25.9753C1.80248 26.6183 2.67052 26.9858 3.57977 27H23.8298C24.7248 26.9811 25.5756 26.6076 26.1954 25.9616C26.8151 25.3156 27.153 24.45 27.1348 23.555V13.5H21.5448C21.5355 15.578 20.7068 17.5684 19.2388 19.039Z" fill="white"/>
</svg>
