<svg width="28" height="28" viewBox="0 0 28 28" fill="none" xmlns="http://www.w3.org/2000/svg">
<path d="M25.5837 0.24978H3.04968C2.76013 0.235396 2.47059 0.278383 2.19771 0.376268C1.92482 0.474154 1.67398 0.625008 1.45959 0.82016C1.2452 1.01531 1.0715 1.25091 0.948467 1.51342C0.825433 1.77592 0.755496 2.06016 0.742676 2.34978V24.9368C0.758537 25.5442 1.00651 26.1225 1.4356 26.5527C1.86469 26.9829 2.4423 27.2323 3.04968 27.2498H25.5767C26.1693 27.2266 26.729 26.9708 27.1344 26.5379C27.5399 26.1049 27.7584 25.5297 27.7427 24.9368V2.35278C27.7474 2.07053 27.6944 1.79028 27.5869 1.52927C27.4793 1.26826 27.3195 1.03201 27.1173 0.835038C26.9151 0.638065 26.6747 0.484535 26.411 0.383888C26.1473 0.28324 25.8657 0.237602 25.5837 0.24978ZM9.11268 22.7558H5.24468V10.7288H9.11268V22.7558ZM7.31168 8.89978H7.28468C7.01183 8.90748 6.74033 8.85884 6.48714 8.75687C6.23394 8.65491 6.0045 8.50183 5.81314 8.30718C5.62179 8.11254 5.47263 7.88053 5.37499 7.62563C5.27735 7.37074 5.23333 7.09845 5.24568 6.82578C5.23517 6.5494 5.28209 6.27385 5.38349 6.01653C5.48489 5.75922 5.63856 5.52573 5.83478 5.33082C6.03101 5.13591 6.26553 4.98381 6.52352 4.88415C6.78151 4.78448 7.05738 4.73941 7.33368 4.75178C7.60856 4.74118 7.88265 4.78763 8.1387 4.8882C8.39474 4.98877 8.62718 5.14128 8.82136 5.33613C9.01555 5.53097 9.16727 5.76392 9.26698 6.0203C9.36668 6.27668 9.4122 6.55094 9.40068 6.82578C9.4112 7.10224 9.36424 7.37788 9.26278 7.63527C9.16132 7.89266 9.00757 8.1262 8.81123 8.32113C8.6149 8.51605 8.38025 8.66812 8.12214 8.76772C7.86403 8.86732 7.58806 8.91229 7.31168 8.89978ZM23.2487 22.7558H19.3807V16.1798C19.3807 14.6048 18.8177 13.5278 17.4187 13.5278C16.981 13.5314 16.5552 13.6706 16.2001 13.9264C15.8449 14.1822 15.5778 14.5418 15.4357 14.9558C15.3326 15.2614 15.2872 15.5836 15.3017 15.9058V22.7558H11.4327V10.7288H15.3007V12.3998C15.6537 11.7907 16.1643 11.288 16.7788 10.9445C17.3933 10.601 18.0889 10.4294 18.7927 10.4478C21.3317 10.4478 23.2527 12.1218 23.2527 15.7298L23.2487 22.7558Z" fill="white"/>
</svg>
