<svg xmlns="http://www.w3.org/2000/svg" xmlns:xlink="http://www.w3.org/1999/xlink" width="75.835" height="87.121" viewBox="0 0 75.835 87.121">
  <defs>
    <linearGradient id="linear-gradient" x1="-1.898" y1="-1.531" x2="-0.712" y2="-1.531" gradientUnits="objectBoundingBox">
      <stop offset="0" stop-color="#8bb93e"/>
      <stop offset="1" stop-color="#4ca243"/>
    </linearGradient>
    <linearGradient id="linear-gradient-2" x1="-1.6" y1="-0.628" x2="-1.6" y2="-1.309" xlink:href="#linear-gradient"/>
    <linearGradient id="linear-gradient-3" x1="-1.426" y1="-1.186" x2="-0.163" y2="-1.186" xlink:href="#linear-gradient"/>
  </defs>
  <g id="Group_32"  transform="translate(-108.043 -563.069)">
    <g id="Group_24"  transform="translate(121.26 576.286)">
      <path id="Path_101"  d="M196.344,607.088a24.15,24.15,0,0,0-37.973,6.272l-.019.018a23.119,23.119,0,0,0,0,32.659,4.115,4.115,0,0,1-5.82,5.82,31.322,31.322,0,0,1,43.812-44.769Z" transform="translate(-143.373 -598.399)" fill="url(#linear-gradient)"/>
    </g>
    <g id="Group_25"  transform="translate(133.457 578.377)">
      <path id="Path_102"  d="M217.238,611.057c.051.05.1.1.148.153a31.354,31.354,0,0,1-.148,44.145L198,674.594a4.115,4.115,0,1,1-5.82-5.82l19.239-19.239a23.119,23.119,0,0,0,0-32.659c-.108-.108-.217-.212-.328-.317a15.945,15.945,0,0,0-26.347,15.724,4.115,4.115,0,0,1-7.952,2.122,24.174,24.174,0,0,1,39.96-23.818C216.915,610.739,217.079,610.9,217.238,611.057Z" transform="translate(-175.977 -603.987)" fill="url(#linear-gradient-2)"/>
    </g>
    <g id="Group_26"  transform="translate(108.043 563.069)">
      <path id="Path_103"  d="M176.692,574.928a4.167,4.167,0,0,1-.632.812,4.113,4.113,0,0,1-5.007.627,36.291,36.291,0,0,0-49.711,49.71,4.114,4.114,0,1,1-7.076,4.2,44.518,44.518,0,0,1,60.985-60.985A4.111,4.111,0,0,1,176.692,574.928Z" transform="translate(-108.043 -563.069)" fill="url(#linear-gradient-3)"/>
    </g>
    <g id="Group_29"  transform="translate(129.465 577.692)">
      <g id="Group_28"  transform="translate(0)">
        <g id="Group_27" >
          <path id="Path_104"  d="M284.389,621.088l.066.066a.568.568,0,0,0,.064.053A1.357,1.357,0,0,0,284.389,621.088Z" transform="translate(-239.84 -614.006)" fill="#008543"/>
          <path id="Path_105"  d="M209.855,609.239c-.275-.254-.553-.5-.836-.735-.3-.262-.614-.508-.931-.746-.474-.362-.955-.7-1.45-1.021-.328-.217-.661-.423-1-.616-.627-.368-1.27-.7-1.921-1.005a2.36,2.36,0,0,0-.222-.1c-.317-.148-.635-.285-.96-.415-.183-.077-.368-.146-.553-.214s-.36-.132-.54-.2c-.362-.129-.725-.243-1.092-.352-.183-.056-.365-.106-.55-.154s-.365-.1-.55-.143-.37-.09-.558-.13q-.349-.079-.7-.143c-.14-.029-.278-.055-.418-.074-.185-.037-.37-.063-.561-.09a23.3,23.3,0,0,0-3.3-.259q-.29,0-.572,0a23.752,23.752,0,0,0-3.41.283c-.188.029-.378.061-.566.1s-.376.069-.561.106a24.783,24.783,0,0,0-3.4.953c-.169.063-.339.127-.505.193a23.528,23.528,0,0,0-2.151.955c-.159.08-.318.164-.474.246-.36.19-.712.389-1.061.6-.153.09-.307.185-.455.281a24.112,24.112,0,0,0-8.467,9.155l-.019.018a23.01,23.01,0,0,0-6.706,14.838,26.505,26.505,0,0,1,44.2-21.6l0,0C209.67,609.06,209.763,609.147,209.855,609.239Z" transform="translate(-165.306 -602.158)" fill="#008543"/>
        </g>
      </g>
    </g>
    <g id="Group_31"  transform="translate(116.274 567.729)">
      <g id="Group_30" >
        <path id="Path_106"  d="M190.344,582.912a4.216,4.216,0,0,1-.513.624,4.113,4.113,0,0,1-5.007.627,36.308,36.308,0,0,0-54.763,30.23,37.816,37.816,0,0,1,60.284-31.482Z" transform="translate(-130.046 -575.525)" fill="#008543"/>
      </g>
    </g>
  </g>
</svg>
