<svg xmlns="http://www.w3.org/2000/svg" xmlns:xlink="http://www.w3.org/1999/xlink" width="199.909"
    height="168.855" viewBox="0 0 199.909 168.855">
    <defs>
        <linearGradient id="linear-gradient" x1="0.19" y1="0.506" x2="1.377" y2="0.506"
            gradientUnits="objectBoundingBox">
            <stop offset="0" stop-color="#8bb93e" />
            <stop offset="1" stop-color="#4ca243" />
        </linearGradient>
        <linearGradient id="linear-gradient-2" x1="0.594" y1="0.923" x2="0.594" y2="0.242"
            xlink:href="#linear-gradient" />
        <linearGradient id="linear-gradient-3" x1="0.172" y1="0.423" x2="1.435" y2="0.423"
            xlink:href="#linear-gradient" />
        <linearGradient id="linear-gradient-4" x1="-0.146" y1="0.5" x2="4.135" y2="0.5"
            xlink:href="#linear-gradient" />
        <linearGradient id="linear-gradient-5" x1="-1.581" y1="0.5" x2="4.424" y2="0.5"
            xlink:href="#linear-gradient" />
        <linearGradient id="linear-gradient-6" x1="-6.34" y1="0.5" x2="7.12" y2="0.5"
            xlink:href="#linear-gradient" />
        <linearGradient id="linear-gradient-7" x1="-7.605" y1="0.5" x2="5.855" y2="0.5"
            xlink:href="#linear-gradient" />
        <linearGradient id="linear-gradient-8" x1="-15.789" y1="0.5" x2="8.171" y2="0.5"
            xlink:href="#linear-gradient" />
        <linearGradient id="linear-gradient-9" x1="-12.226" y1="0.5" x2="1.234" y2="0.5"
            xlink:href="#linear-gradient" />
    </defs>
    <g id="Group_22" transform="translate(-272.032 -100.29)">
        <g id="Group_18" transform="translate(321.442 100.29)">
            <g id="Group_10" transform="translate(17.618 17.618)">
                <path id="Path_82"
                    d="M442.5,138.121a32.193,32.193,0,0,0-50.619,8.361l-.024.024a30.817,30.817,0,0,0,0,43.535A5.486,5.486,0,0,1,384.1,197.8a41.752,41.752,0,0,1,58.4-59.678Z"
                    transform="translate(-371.891 -126.538)" fill="url(#linear-gradient)" />
            </g>
            <g id="Group_11" transform="translate(33.877 20.405)">
                <path id="Path_83"
                    d="M451.116,140.113c.067.067.134.134.2.2a41.8,41.8,0,0,1-.2,58.846L425.469,224.81a5.486,5.486,0,1,1-7.758-7.758l25.647-25.646a30.818,30.818,0,0,0,0-43.535c-.145-.144-.289-.282-.438-.423a21.254,21.254,0,0,0-35.121,20.96,5.485,5.485,0,0,1-10.6,2.829,32.225,32.225,0,0,1,53.267-31.75C450.685,139.69,450.9,139.9,451.116,140.113Z"
                    transform="translate(-396.114 -130.69)" fill="url(#linear-gradient-2)" />
            </g>
            <g id="Group_12">
                <path id="Path_84"
                    d="M437.153,116.1a5.578,5.578,0,0,1-.842,1.083,5.482,5.482,0,0,1-6.675.836,48.377,48.377,0,0,0-66.265,66.265,5.484,5.484,0,1,1-9.433,5.6,59.344,59.344,0,0,1,81.294-81.294A5.481,5.481,0,0,1,437.153,116.1Z"
                    transform="translate(-345.643 -100.29)" fill="url(#linear-gradient-3)" />
            </g>
            <g id="Group_15" transform="translate(28.556 19.493)">
                <g id="Group_14">
                    <g id="Group_13">
                        <path id="Path_85"
                            d="M476.659,143.4l.088.088a.862.862,0,0,0,.085.07A1.826,1.826,0,0,0,476.659,143.4Z"
                            transform="translate(-417.274 -133.955)" fill="#008543" />
                        <path id="Path_86"
                            d="M447.571,138.771c-.367-.339-.737-.667-1.114-.981-.406-.349-.818-.677-1.242-.994-.631-.483-1.273-.935-1.932-1.361-.437-.289-.881-.565-1.329-.822-.836-.49-1.693-.938-2.56-1.34-.1-.049-.194-.095-.3-.134-.424-.2-.846-.381-1.28-.554-.244-.1-.491-.194-.737-.285s-.48-.177-.72-.261c-.483-.173-.966-.325-1.457-.469-.243-.074-.487-.141-.733-.2s-.487-.134-.734-.19-.494-.12-.744-.173q-.465-.106-.93-.19c-.187-.039-.371-.075-.558-.1-.246-.049-.493-.085-.747-.119a31.044,31.044,0,0,0-4.394-.346c-.257,0-.512,0-.762,0a31.66,31.66,0,0,0-4.545.377c-.25.039-.5.081-.755.127s-.5.092-.747.141a33,33,0,0,0-4.535,1.27c-.226.085-.452.169-.674.257-.973.374-1.928.8-2.867,1.273-.211.105-.423.218-.631.328-.48.254-.948.518-1.414.8-.2.119-.409.246-.606.374a32.14,32.14,0,0,0-11.288,12.2l-.024.024a30.674,30.674,0,0,0-8.939,19.779,35.332,35.332,0,0,1,58.913-28.792l0,0C447.324,138.531,447.448,138.647,447.571,138.771Z"
                            transform="translate(-388.186 -129.331)" fill="#008543" />
                    </g>
                </g>
            </g>
            <g id="Group_17" transform="translate(10.972 6.211)">
                <g id="Group_16">
                    <path id="Path_87"
                        d="M442.369,119.391a5.624,5.624,0,0,1-.684.832,5.482,5.482,0,0,1-6.675.836,48.4,48.4,0,0,0-73,40.3,50.409,50.409,0,0,1,80.36-41.966Z"
                        transform="translate(-361.99 -109.543)" fill="#008543" />
                </g>
            </g>
        </g>
        <g id="Group_21" transform="translate(272.032 224.981)">
            <g id="Group_19">
                <path id="Path_88"
                    d="M294.762,343a2.987,2.987,0,1,0,2.095.875A2.888,2.888,0,0,0,294.762,343Z"
                    transform="translate(-278.529 -304.778)" fill="#008543" />
                <path id="Path_89"
                    d="M335.76,343a2.947,2.947,0,1,0,2.118.875A2.888,2.888,0,0,0,335.76,343Z"
                    transform="translate(-292.008 -304.778)" fill="#008543" />
                <path id="Path_90"
                    d="M325.845,343a2.987,2.987,0,1,0,2.1.875A2.887,2.887,0,0,0,325.845,343Z"
                    transform="translate(-288.748 -304.778)" fill="#008543" />
                <path id="Path_91"
                    d="M321.264,307.256a4.9,4.9,0,0,0-3.592,1.5,4.953,4.953,0,0,0-1.5,3.615v7.553a2.986,2.986,0,0,1-2.97,2.97H307.4a2.986,2.986,0,0,1-2.97-2.97V307.256a4.954,4.954,0,0,0-3.615,1.5,4.9,4.9,0,0,0-1.5,3.592v7.576a2.869,2.869,0,0,1-.852,2.1,2.9,2.9,0,0,1-2.118.875H280.091a2.853,2.853,0,0,1-2.1-.875,2.889,2.889,0,0,1-.875-2.1v-4.352a4.953,4.953,0,0,0-1.5-3.615,4.881,4.881,0,0,0-3.592-1.474v9.441a8.1,8.1,0,0,0,8.059,8.059h16.256a7.8,7.8,0,0,0,5.526-2.187,7.789,7.789,0,0,0,5.437,2.183v0h5.895a8.058,8.058,0,0,0,8.059-8.059Z"
                    transform="translate(-272.032 -293.026)" fill="url(#linear-gradient-4)" />
                <path id="Path_92"
                    d="M370.238,299.527a12.9,12.9,0,0,0-5.366,4.652,11.453,11.453,0,0,0-1.818,6.24,8.059,8.059,0,0,0,8.036,8.037,7.828,7.828,0,0,0,2.67-.438,2.822,2.822,0,0,1-.6.875,2.906,2.906,0,0,1-2.119.875h-9.325v-.023h-.576a2.891,2.891,0,0,1-2.1-.875,2.848,2.848,0,0,1-.875-2.095V304.132a5.109,5.109,0,0,0-5.089,5.089v10.523c0,3.523-1.728,6.148-5.2,7.851-2.579,1.289-3.868,3.178-3.868,5.688v.068a13.7,13.7,0,0,0,10.085-3.891,12.9,12.9,0,0,0,3.431-5.434,7.786,7.786,0,0,0,3.271.811v.018h10.246a8.058,8.058,0,0,0,8.06-8.059V297.754A19.934,19.934,0,0,0,370.238,299.527Zm3.776,10.891a2.936,2.936,0,0,1-5.871,0,6.881,6.881,0,0,1,1.542-4.168,7.286,7.286,0,0,1,4.329-2.717Z"
                    transform="translate(-295.697 -289.902)" fill="url(#linear-gradient-5)" />
                <path id="Path_93"
                    d="M388.454,292a2.971,2.971,0,0,0,0-5.941,2.85,2.85,0,0,0-2.095.875,2.945,2.945,0,0,0,0,4.19A2.85,2.85,0,0,0,388.454,292Z"
                    transform="translate(-309.332 -286.056)" fill="#008543" />
                <path id="Path_94"
                    d="M378.507,292a2.9,2.9,0,0,0,2.118-.875,3,3,0,0,0,0-4.19A2.971,2.971,0,1,0,378.507,292Z"
                    transform="translate(-306.062 -286.056)" fill="#008543" />
            </g>
            <g id="Group_20" transform="translate(92.094 2.671)">
                <path id="Path_95"
                    d="M417.063,290.1a7.823,7.823,0,0,0-7.828,7.829v16.509a8.091,8.091,0,0,0,2.349,5.711,7.606,7.606,0,0,0,5.48,2.256c.346,0,.668-.023,1.014-.046A8.352,8.352,0,0,0,419.365,324l.046.046a3.2,3.2,0,0,0,3.592.622,2.924,2.924,0,0,0,1.888-2.947v-.3a2.815,2.815,0,0,1-2.072-.852c-.115-.115-.207-.231-.323-.346l.069-.068c.023-.023.023-.047.046-.07a7.437,7.437,0,0,0,2.279-5.5V297.933a7.862,7.862,0,0,0-7.829-7.829Zm2.925,24.477a2.936,2.936,0,0,1-5.871,0V297.933a2.936,2.936,0,1,1,5.871,0Z"
                    transform="translate(-409.234 -290.058)" fill="url(#linear-gradient-6)" />
                <path id="Path_96"
                    d="M446.567,298.474a7.823,7.823,0,0,0-7.829,7.829h.829a6.89,6.89,0,0,0,4.951-2.1c0-.023,0-.023.023-.023a2.987,2.987,0,0,1,2-.806,2.794,2.794,0,0,1,2.165.921,3.052,3.052,0,0,1,.783,2.05v1.957l-4.836.944c-3.914,1.174-5.895,3.707-5.918,7.622a8.108,8.108,0,0,0,2.279,5.94,7.616,7.616,0,0,0,5.55,2.279,7.483,7.483,0,0,0,4.49-1.4,3.527,3.527,0,0,0,2.463,1.014h.875V306.3a7.863,7.863,0,0,0-7.829-7.829Zm2.924,18.4a3.3,3.3,0,0,1-.852,2.463,2.891,2.891,0,0,1-4.145,0,3.314,3.314,0,0,1-.875-2.463,2.949,2.949,0,0,1,1.957-2.741l3.914-.783Z"
                    transform="translate(-418.934 -292.81)" fill="url(#linear-gradient-7)" />
                <path id="Path_97"
                    d="M471.949,300.815a2.6,2.6,0,0,0-2.188-1.174h-1.52v25.835h1.5a3.381,3.381,0,0,0,3.385-3.384V307.47a2.88,2.88,0,0,1,.944-2.141,3.006,3.006,0,0,1,2.049-.783h.922v-4.9h-.967A7.491,7.491,0,0,0,471.949,300.815Z"
                    transform="translate(-428.634 -293.193)" fill="url(#linear-gradient-8)" />
                <path id="Path_98"
                    d="M495.352,298.543a7.58,7.58,0,0,0-5.48,2.234,8.129,8.129,0,0,0-2.349,5.71v10.684a8.129,8.129,0,0,0,2.349,5.71,7.828,7.828,0,0,0,13.308-5.595h-2.417a3.458,3.458,0,0,0-2.947,1.612,3.5,3.5,0,0,1-.391.46,2.9,2.9,0,0,1-4.214-.069,3.029,3.029,0,0,1-.806-2.049v-3.27H503.18v-7.6a7.822,7.822,0,0,0-7.829-7.829Zm2.925,10.523H492.4v-2.694a2.936,2.936,0,1,1,5.872,0Z"
                    transform="translate(-434.973 -292.832)" fill="#008543" />
                <path id="Path_99"
                    d="M524.855,298.543a7.58,7.58,0,0,0-5.48,2.234,8.129,8.129,0,0,0-2.349,5.71v10.684a8.129,8.129,0,0,0,2.349,5.71,7.829,7.829,0,0,0,13.308-5.595h-2.417a3.458,3.458,0,0,0-2.947,1.612,3.5,3.5,0,0,1-.391.46,2.9,2.9,0,0,1-4.214-.069,3.032,3.032,0,0,1-.806-2.049v-3.27h10.776v-7.6a7.822,7.822,0,0,0-7.829-7.829Zm2.925,10.523h-5.872v-2.694a2.936,2.936,0,1,1,5.872,0Z"
                    transform="translate(-444.674 -292.832)" fill="#008543" />
                <path id="Path_100"
                    d="M559.886,298.785a7.459,7.459,0,0,0-5.526-2.3,7.888,7.888,0,0,0-2.947.552V293.42a3.381,3.381,0,0,0-3.384-3.385h-1.5v32.283h1.52a2.594,2.594,0,0,0,2.187-1.175,7.434,7.434,0,0,0,4.122,1.175,7.823,7.823,0,0,0,7.829-7.828V304.311A7.458,7.458,0,0,0,559.886,298.785Zm-2.6,15.7a2.936,2.936,0,0,1-5.872,0V304.265a2.772,2.772,0,0,1,.875-2.026,2.924,2.924,0,0,1,5,2.072Z"
                    transform="translate(-454.374 -290.035)" fill="url(#linear-gradient-9)" />
            </g>
        </g>
    </g>
</svg>
