<?xml version="1.0" encoding="utf-8"?>
<svg width="800px" height="800px" viewBox="0 -35 1094 1094" fill="#008543" class="icon"
    version="1.1" xmlns="http://www.w3.org/2000/svg">
    <path
        d="M1094.365815 508.821712c0-17.000144-9.756605-32.522015-25.130648-39.913382l-148.418652-71.400607 148.418652-71.400606c15.374044-7.391367 25.130648-22.913238 25.130648-39.913382s-9.756605-32.522015-25.130648-39.913383L566.326548 4.43482c-12.121842-5.913094-26.313267-5.913094-38.435109 0L25.130648 246.280352c-15.374044 7.391367-25.130648 22.913238-25.130648 39.913383s9.756605 32.522015 25.130648 39.913382l148.418652 71.400606L25.130648 468.90833c-15.374044 7.391367-25.130648 22.913238-25.130648 39.913382s9.756605 32.522015 25.130648 39.913383l155.070882 74.50498L25.130648 697.892883c-15.374044 7.391367-25.130648 22.913238-25.130648 39.913382s9.756605 32.522015 25.130648 39.913383l502.760791 241.845532c6.060921 2.956547 12.713151 4.43482 19.217555 4.43482s13.156633-1.478273 19.217554-4.43482l502.760791-241.845532c15.374044-7.391367 25.130648-22.913238 25.130649-39.913383s-9.756605-32.522015-25.130649-39.913382l-155.070882-74.504981 155.070882-74.50498c15.521871-7.391367 25.278476-22.913238 25.278476-40.06121zM547.108994 93.574708L947.573264 286.193735 547.108994 478.812762 146.644724 286.193735 547.108994 93.574708zM947.573264 737.806265L547.108994 930.425292 146.644724 737.806265l135.7055-65.339685 245.541215 118.114047c6.060921 2.956547 12.713151 4.43482 19.217555 4.43482s13.156633-1.478273 19.217554-4.43482l245.541216-118.114047 135.7055 65.339685z m-400.46427-36.365526L146.644724 508.821712l129.201097-62.087484 252.045618 121.218421c6.060921 2.956547 12.713151 4.43482 19.217555 4.43482s13.156633-1.478273 19.217554-4.43482l252.045619-121.218421 129.201097 62.087484-400.46427 192.619027z" />
</svg>