<svg xmlns="http://www.w3.org/2000/svg" width="32" height="50" viewBox="0 0 32 50">
  <g id="Group_177" data-name="Group 177" transform="translate(-347.822 -191.733)">
    <path id="map-marker" d="M24,16.667a8.2,8.2,0,0,0-2.344-5.892A7.556,7.556,0,0,0,16,8.333a7.556,7.556,0,0,0-5.656,2.442A8.2,8.2,0,0,0,8,16.667a8.2,8.2,0,0,0,2.344,5.892A7.556,7.556,0,0,0,16,25a7.556,7.556,0,0,0,5.656-2.442A8.2,8.2,0,0,0,24,16.667Zm8,0a14.2,14.2,0,0,1-1.031,5.826l-11.375,25.2a3.936,3.936,0,0,1-5.7,1.693,3.694,3.694,0,0,1-1.453-1.693L1.031,22.493A14.2,14.2,0,0,1,0,16.667,16.4,16.4,0,0,1,4.688,4.883,15.118,15.118,0,0,1,16,0,15.105,15.105,0,0,1,27.312,4.883,16.4,16.4,0,0,1,32,16.667Z" transform="translate(347.822 191.733)" fill="#4ca243"/>
    <text id="A" transform="translate(358.822 232.733)" fill="#fff" font-size="15" font-family="SegoeUI, Segoe UI"><tspan x="0" y="0">A</tspan></text>
  </g>
</svg>
