<?xml version="1.0" encoding="iso-8859-1"?><!-- Uploaded to: SVG Repo, www.svgrepo.com, Generator: SVG Repo Mixer Tools -->
<svg fill="#000000" height="800px" width="800px" version="1.1" id="Layer_1"
    xmlns="http://www.w3.org/2000/svg" xmlns:xlink="http://www.w3.org/1999/xlink"
    viewBox="0 0 512 512" xml:space="preserve">
<g>
	<g>
		<path d="M503.467,34.133H8.533C3.814,34.133,0,37.956,0,42.667v426.667c0,4.719,3.814,8.533,8.533,8.533h494.933
			c4.719,0,8.533-3.814,8.533-8.533V42.667C512,37.956,508.186,34.133,503.467,34.133z M349.867,85.333h60.279
			c3.533,26.94,23.706,47.113,50.654,50.654v103.501c-26.94,3.533-47.113,23.706-50.654,50.654h-60.279V85.333z M162.133,460.8
			H17.067v-17.067h145.067V460.8z M162.133,426.667H17.067V409.6h145.067V426.667z M162.133,392.533H17.067v-17.067h145.067V392.533
			z M162.133,358.4H17.067v-17.067h145.067V358.4z M162.133,290.133h-60.279c-3.541-26.94-23.714-47.113-50.654-50.654V135.987
			c26.94-3.541,47.113-23.714,50.654-50.654h60.279V290.133z M162.133,68.267H93.867c-4.719,0-8.533,3.823-8.533,8.533
			c0,24.721-17.946,42.667-42.667,42.667c-4.719,0-8.533,3.823-8.533,8.533v119.467c0,4.71,3.814,8.533,8.533,8.533
			c24.721,0,42.667,17.946,42.667,42.667c0,4.71,3.814,8.533,8.533,8.533h68.267v17.067H17.067V51.2h145.067V68.267z M332.8,460.8
			H179.2V341.333h153.6V460.8z M332.8,324.267H179.2V51.2h153.6V324.267z M494.933,460.8H349.867v-17.067h145.067V460.8z
			 M494.933,426.667H349.867V409.6h145.067V426.667z M494.933,392.533H349.867v-17.067h145.067V392.533z M494.933,358.4H349.867
			v-17.067h145.067V358.4z M494.933,324.267H349.867V307.2h68.267c4.719,0,8.533-3.823,8.533-8.533
			c0-24.721,17.946-42.667,42.667-42.667c4.719,0,8.533-3.823,8.533-8.533V128c0-4.71-3.814-8.533-8.533-8.533
			c-24.721,0-42.667-17.946-42.667-42.667c0-4.71-3.814-8.533-8.533-8.533h-68.267V51.2h145.067V324.267z" />
	</g>
</g>
</svg>