<svg width="18" height="21" viewBox="0 0 18 21" fill="none" xmlns="http://www.w3.org/2000/svg">
<path d="M9.55401 5.02055C8.97428 5.00953 8.39843 5.11741 7.86201 5.33755L6.17901 3.70255C6.71024 3.41958 7.27597 3.2068 7.86201 3.06955V0.643555H11.242V3.12155C12.2653 3.34071 13.1848 3.89841 13.852 4.70455C14.4652 5.47264 14.8244 6.41232 14.88 7.39355H12.349C12.2783 5.81155 11.345 5.02055 9.54901 5.02055H9.55401ZM1.48601 1.85655L17.939 18.3096L16.515 19.7336L13.984 17.2026C13.2139 17.8843 12.2604 18.3246 11.242 18.4686V20.8936H7.86201V18.4676C6.77524 18.259 5.76977 17.7469 4.96201 16.9906C4.579 16.6221 4.27452 16.1798 4.06691 15.6906C3.85931 15.2013 3.75287 14.6751 3.75401 14.1436H6.18001C6.35601 15.7256 7.48101 16.5166 9.55501 16.5166C10.0635 16.5785 10.5794 16.5147 11.0575 16.3308C11.5356 16.1468 11.9612 15.8484 12.297 15.4616L8.34201 11.5616C5.38868 10.6829 3.91201 9.20555 3.91201 7.12955L0.0620117 3.28055L1.48601 1.85655Z" fill="white"/>
</svg>
