<svg xmlns="http://www.w3.org/2000/svg" width="62.4" height="111.674" viewBox="0 0 62.4 111.674">
  <path id="map-marker" d="M46.8,32.5a15.99,15.99,0,0,0-4.571-11.489A14.734,14.734,0,0,0,31.2,16.25a14.734,14.734,0,0,0-11.029,4.761A15.99,15.99,0,0,0,15.6,32.5a15.99,15.99,0,0,0,4.571,11.489A14.734,14.734,0,0,0,31.2,48.75a14.734,14.734,0,0,0,11.029-4.761A15.99,15.99,0,0,0,46.8,32.5Zm15.6,0a27.69,27.69,0,0,1-2.01,11.361L38.21,92.993a7.612,7.612,0,0,1-2.894,3.3c-1.279.805-2.653,15.381-4.116,15.379S28.369,97.1,27.089,96.295a7.2,7.2,0,0,1-2.834-3.3L2.01,43.861A27.69,27.69,0,0,1,0,32.5,31.974,31.974,0,0,1,9.142,9.523,29.481,29.481,0,0,1,31.2,0,29.455,29.455,0,0,1,53.258,9.523,31.986,31.986,0,0,1,62.4,32.5Z" fill="#ffc107"/>
</svg>
