<svg width="20" height="21" viewBox="0 0 20 21" fill="none" xmlns="http://www.w3.org/2000/svg">
<path fill-rule="evenodd" clip-rule="evenodd" d="M19.9021 10.5436C19.9021 12.5016 19.3214 14.4157 18.2336 16.0437C17.1458 17.6717 15.5996 18.9407 13.7906 19.69C11.9816 20.4393 9.99107 20.6353 8.07066 20.2533C6.15025 19.8713 4.38624 18.9285 3.0017 17.5439C1.61716 16.1594 0.674275 14.3954 0.292281 12.4749C-0.0897127 10.5545 0.10634 8.56398 0.855648 6.75499C1.60496 4.946 2.87386 3.39983 4.50191 2.31201C6.12996 1.22418 8.04402 0.643555 10.0021 0.643555C12.6277 0.643555 15.1458 1.68659 17.0024 3.5432C18.859 5.39981 19.9021 7.91791 19.9021 10.5436ZM8.23106 8.10755H6.60206C6.56006 5.77456 8.36705 4.97355 10.0071 4.97355C11.7351 4.97355 13.3141 5.87355 13.3141 7.74455C13.299 8.26553 13.1494 8.77373 12.8797 9.21972C12.61 9.6657 12.2294 10.0343 11.7751 10.2896C10.8631 10.9816 10.5261 11.2396 10.5261 12.1286V12.5676H8.90706L8.90206 11.9956C8.90267 11.4944 9.03689 11.0024 9.29088 10.5704C9.54487 10.1384 9.90944 9.78183 10.3471 9.53755C11.0771 8.98855 11.5411 8.62655 11.5411 7.83755C11.5436 7.63103 11.5017 7.42637 11.418 7.23753C11.3344 7.04868 11.211 6.88009 11.0563 6.74324C10.9016 6.60638 10.7192 6.50449 10.5216 6.44449C10.324 6.38449 10.1157 6.3678 9.91106 6.39555C9.68369 6.38012 9.45567 6.41409 9.24268 6.49512C9.02968 6.57616 8.83674 6.70233 8.67713 6.86499C8.51751 7.02765 8.395 7.22293 8.318 7.43742C8.241 7.6519 8.21134 7.88052 8.23106 8.10755ZM9.77906 16.0786C9.6193 16.0919 9.45852 16.0719 9.30688 16.0199C9.15523 15.9679 9.01603 15.885 8.89806 15.7764C8.78009 15.6679 8.68593 15.536 8.62152 15.3892C8.5571 15.2424 8.52385 15.0839 8.52385 14.9236C8.52385 14.7632 8.5571 14.6047 8.62152 14.4579C8.68593 14.3111 8.78009 14.1792 8.89806 14.0707C9.01603 13.9621 9.15523 13.8792 9.30688 13.8272C9.45852 13.7752 9.6193 13.7552 9.77906 13.7686C9.93976 13.7536 10.1018 13.7723 10.2549 13.8236C10.4079 13.8748 10.5486 13.9574 10.6679 14.0661C10.7872 14.1748 10.8825 14.3072 10.9477 14.4549C11.013 14.6025 11.0466 14.7621 11.0466 14.9236C11.0466 15.085 11.013 15.2446 10.9477 15.3922C10.8825 15.5399 10.7872 15.6723 10.6679 15.781C10.5486 15.8897 10.4079 15.9723 10.2549 16.0236C10.1018 16.0748 9.93976 16.0935 9.77906 16.0786Z" fill="white"/>
</svg>
