<svg width="16" height="21" viewBox="0 0 16 21" fill="none" xmlns="http://www.w3.org/2000/svg">
<path fill-rule="evenodd" clip-rule="evenodd" d="M0.60791 5.57142C0.60791 4.91793 0.867509 4.2912 1.3296 3.82911C1.79169 3.36702 2.41842 3.10742 3.07191 3.10742H10.4639C11.1174 3.10742 11.7441 3.36702 12.2062 3.82911C12.6683 4.2912 12.9279 4.91793 12.9279 5.57142V20.3554L6.76791 16.6554L0.60791 20.3554V5.57142Z" fill="white"/>
<path d="M15.3919 17.8916L14.1599 17.1526V3.10756C14.1599 2.78081 14.0301 2.46745 13.7991 2.2364C13.568 2.00536 13.2547 1.87556 12.9279 1.87556H3.39893C3.61545 1.50052 3.92699 1.18918 4.30216 0.972891C4.67733 0.756603 5.10288 0.64301 5.53593 0.643557H12.9279C13.5814 0.643557 14.2081 0.903156 14.6702 1.36525C15.1323 1.82734 15.3919 2.45406 15.3919 3.10756V17.8916Z" fill="white"/>
</svg>
