<svg id="Group_21" xmlns="http://www.w3.org/2000/svg" width="139.318" height="30.778"
    viewBox="0 0 139.318 30.778">
    <g id="Group_19">
        <path id="Path_88" d="M293.862,343a2.082,2.082,0,1,0,1.46.61A2.012,2.012,0,0,0,293.862,343Z"
            transform="translate(-282.549 -316.364)" fill="#4ca243" />
        <path id="Path_89" d="M334.86,343a2.054,2.054,0,1,0,1.476.61A2.012,2.012,0,0,0,334.86,343Z"
            transform="translate(-304.368 -316.364)" fill="#4ca243" />
        <path id="Path_90" d="M324.945,343a2.082,2.082,0,1,0,1.46.61A2.012,2.012,0,0,0,324.945,343Z"
            transform="translate(-299.092 -316.364)" fill="#4ca243" />
        <path id="Path_91"
            d="M306.342,307.256a3.417,3.417,0,0,0-2.5,1.043,3.452,3.452,0,0,0-1.043,2.519v5.263a2.081,2.081,0,0,1-2.07,2.07H296.68a2.081,2.081,0,0,1-2.07-2.07v-8.826a3.453,3.453,0,0,0-2.519,1.043,3.418,3.418,0,0,0-1.043,2.5v5.28a2,2,0,0,1-.594,1.46,2.024,2.024,0,0,1-1.476.61H277.649a1.989,1.989,0,0,1-1.46-.61,2.013,2.013,0,0,1-.61-1.46v-3.033a3.452,3.452,0,0,0-1.043-2.519,3.4,3.4,0,0,0-2.5-1.027v6.579a5.643,5.643,0,0,0,5.617,5.616h11.329a5.437,5.437,0,0,0,3.851-1.524,5.428,5.428,0,0,0,3.789,1.521v0h4.108a5.615,5.615,0,0,0,5.616-5.616Z"
            transform="translate(-272.032 -297.339)" fill="#4ca243" />
        <path id="Path_92"
            d="M362.288,298.989a8.994,8.994,0,0,0-3.739,3.242,7.982,7.982,0,0,0-1.267,4.348,5.616,5.616,0,0,0,5.6,5.6,5.456,5.456,0,0,0,1.861-.3,1.966,1.966,0,0,1-.417.61,2.025,2.025,0,0,1-1.477.61h-6.5v-.016h-.4a2.015,2.015,0,0,1-1.46-.61,1.985,1.985,0,0,1-.61-1.46V302.2a3.561,3.561,0,0,0-3.546,3.546v7.334a5.787,5.787,0,0,1-3.627,5.472,4.26,4.26,0,0,0-2.7,3.964v.048a9.55,9.55,0,0,0,7.028-2.712,8.992,8.992,0,0,0,2.391-3.787,5.427,5.427,0,0,0,2.28.565v.013h7.14a5.615,5.615,0,0,0,5.617-5.616V297.754A13.893,13.893,0,0,0,362.288,298.989Zm2.631,7.59a2.046,2.046,0,0,1-4.092,0,4.8,4.8,0,0,1,1.075-2.9,5.078,5.078,0,0,1,3.017-1.894Z"
            transform="translate(-310.34 -292.282)" fill="#4ca243" />
        <path id="Path_93"
            d="M387.554,290.2a2.07,2.07,0,0,0,0-4.14,1.986,1.986,0,0,0-1.46.61,2.053,2.053,0,0,0,0,2.92A1.986,1.986,0,0,0,387.554,290.2Z"
            transform="translate(-332.413 -286.056)" fill="#4ca243" />
        <path id="Path_94"
            d="M377.607,290.2a2.023,2.023,0,0,0,1.476-.61,2.093,2.093,0,0,0,0-2.92,2.071,2.071,0,1,0-1.476,3.53Z"
            transform="translate(-327.119 -286.056)" fill="#4ca243" />
    </g>
    <g id="Group_20" transform="translate(64.181 1.861)">
        <path id="Path_95"
            d="M414.69,290.1a5.452,5.452,0,0,0-5.456,5.456v11.505a5.639,5.639,0,0,0,1.637,3.98,5.3,5.3,0,0,0,3.819,1.572c.241,0,.465-.016.706-.032a5.82,5.82,0,0,0,.9,1.14l.032.032a2.227,2.227,0,0,0,2.5.433,2.037,2.037,0,0,0,1.316-2.054v-.209a1.962,1.962,0,0,1-1.444-.594c-.08-.081-.145-.161-.225-.241l.048-.048c.016-.016.016-.033.032-.049a5.183,5.183,0,0,0,1.589-3.835v-11.6a5.479,5.479,0,0,0-5.456-5.456Zm2.038,17.058a2.046,2.046,0,0,1-4.092,0v-11.6a2.046,2.046,0,1,1,4.092,0Z"
            transform="translate(-409.234 -290.072)" fill="#4ca243" />
        <path id="Path_96"
            d="M444.194,298.474a5.452,5.452,0,0,0-5.456,5.456h.578a4.8,4.8,0,0,0,3.45-1.46c0-.016,0-.016.016-.016a2.082,2.082,0,0,1,1.4-.562,1.947,1.947,0,0,1,1.509.642,2.127,2.127,0,0,1,.545,1.429v1.364l-3.37.658c-2.728.818-4.108,2.584-4.124,5.312a5.651,5.651,0,0,0,1.589,4.14,5.307,5.307,0,0,0,3.868,1.589,5.215,5.215,0,0,0,3.129-.979,2.458,2.458,0,0,0,1.717.706h.61V303.93a5.48,5.48,0,0,0-5.456-5.456Zm2.038,12.822a2.3,2.3,0,0,1-.594,1.717,2.015,2.015,0,0,1-2.889,0,2.31,2.31,0,0,1-.609-1.717,2.055,2.055,0,0,1,1.364-1.91l2.728-.545Z"
            transform="translate(-424.937 -294.526)" fill="#4ca243" />
        <path id="Path_97"
            d="M470.826,300.459a1.809,1.809,0,0,0-1.524-.818h-1.059v18h1.043a2.357,2.357,0,0,0,2.359-2.359V305.1a2.007,2.007,0,0,1,.658-1.492,2.1,2.1,0,0,1,1.428-.545h.642v-3.418H473.7A5.22,5.22,0,0,0,470.826,300.459Z"
            transform="translate(-440.639 -295.147)" fill="#4ca243" />
        <path id="Path_98"
            d="M492.979,298.543a5.283,5.283,0,0,0-3.819,1.557,5.665,5.665,0,0,0-1.637,3.979v7.446a5.665,5.665,0,0,0,1.637,3.979,5.456,5.456,0,0,0,9.275-3.9H496.75a2.41,2.41,0,0,0-2.054,1.123,2.443,2.443,0,0,1-.273.321,2.018,2.018,0,0,1-2.937-.048,2.11,2.11,0,0,1-.562-1.428v-2.279h7.51V304a5.451,5.451,0,0,0-5.456-5.456Zm2.038,7.333h-4.092V304a2.046,2.046,0,1,1,4.092,0Z"
            transform="translate(-450.901 -294.563)" fill="#4ca243" />
        <path id="Path_99"
            d="M522.483,298.543a5.283,5.283,0,0,0-3.819,1.557,5.665,5.665,0,0,0-1.637,3.979v7.446a5.665,5.665,0,0,0,1.637,3.979,5.456,5.456,0,0,0,9.275-3.9h-1.685a2.41,2.41,0,0,0-2.054,1.123,2.438,2.438,0,0,1-.273.321A2.018,2.018,0,0,1,520.99,313a2.113,2.113,0,0,1-.562-1.428v-2.279h7.51V304a5.451,5.451,0,0,0-5.456-5.456Zm2.038,7.333h-4.092V304a2.046,2.046,0,1,1,4.092,0Z"
            transform="translate(-466.603 -294.563)" fill="#4ca243" />
        <path id="Path_100"
            d="M555.838,296.133a5.2,5.2,0,0,0-3.851-1.6,5.5,5.5,0,0,0-2.054.385v-2.52a2.356,2.356,0,0,0-2.359-2.359h-1.043v22.5h1.059a1.808,1.808,0,0,0,1.524-.819,5.181,5.181,0,0,0,2.873.819,5.452,5.452,0,0,0,5.456-5.456v-7.093A5.2,5.2,0,0,0,555.838,296.133Zm-1.813,10.944a2.046,2.046,0,0,1-4.092,0v-7.125a1.932,1.932,0,0,1,.61-1.412,2.038,2.038,0,0,1,3.482,1.444Z"
            transform="translate(-482.306 -290.035)" fill="#4ca243" />
    </g>
</svg>
