<svg width="43" height="36" viewBox="0 0 43 36" fill="none" xmlns="http://www.w3.org/2000/svg">
<g filter="url(#filter0_d_1_15402)">
<path d="M38.1919 3.41828C36.9377 3.9633 35.6107 4.32242 34.2529 4.48428C35.6804 3.64841 36.7539 2.32035 37.2719 0.749281C35.9226 1.53824 34.4489 2.09181 32.9139 2.38628C32.2674 1.70917 31.49 1.17056 30.6289 0.803199C29.7678 0.435834 28.8411 0.247378 27.9049 0.249281C27.0111 0.241502 26.1246 0.409993 25.296 0.745117C24.4675 1.08024 23.7131 1.57542 23.076 2.20234C22.439 2.82926 21.9318 3.57561 21.5834 4.39872C21.2351 5.22182 21.0524 6.10552 21.0459 6.99928C21.0432 7.51784 21.1026 8.03486 21.2229 8.53928C18.5044 8.41164 15.8425 7.71796 13.4075 6.50261C10.9725 5.28726 8.81804 3.57701 7.08188 1.48128C6.19971 2.96719 5.92885 4.73754 6.32638 6.41924C6.7239 8.10094 7.75877 9.56263 9.21288 10.4963C8.1202 10.4705 7.04989 10.1813 6.09288 9.65328V9.73628C6.10273 11.3053 6.65623 12.8224 7.65909 14.0291C8.66196 15.2358 10.0522 16.0575 11.5929 16.3543C11.0034 16.5115 10.396 16.5911 9.78588 16.5913C9.35312 16.5918 8.92136 16.5496 8.49688 16.4653C8.94786 17.8154 9.80783 18.9917 10.9575 19.831C12.1072 20.6703 13.4896 21.1311 14.9129 21.1493C12.4728 23.0343 9.47525 24.0545 6.39188 24.0493C5.84474 24.0476 5.29816 24.0143 4.75488 23.9493C7.89039 25.9509 11.535 27.0096 15.2549 26.9993C17.8044 27.04 20.3365 26.5732 22.7039 25.6262C25.0713 24.6792 27.2267 23.2707 29.0447 21.4829C30.8627 19.6951 32.3069 17.5635 33.2934 15.2123C34.2799 12.861 34.789 10.3371 34.7909 7.78728C34.7909 7.49528 34.7829 7.20128 34.7689 6.91628C36.109 5.9625 37.2681 4.77726 38.1919 3.41628V3.41828Z" fill="white"/>
</g>
<defs>
<filter id="filter0_d_1_15402" x="0.754883" y="0.249023" width="41.437" height="34.7529" filterUnits="userSpaceOnUse" color-interpolation-filters="sRGB">
<feFlood flood-opacity="0" result="BackgroundImageFix"/>
<feColorMatrix in="SourceAlpha" type="matrix" values="0 0 0 0 0 0 0 0 0 0 0 0 0 0 0 0 0 0 127 0" result="hardAlpha"/>
<feOffset dy="4"/>
<feGaussianBlur stdDeviation="2"/>
<feComposite in2="hardAlpha" operator="out"/>
<feColorMatrix type="matrix" values="0 0 0 0 0 0 0 0 0 0 0 0 0 0 0 0 0 0 0.25 0"/>
<feBlend mode="normal" in2="BackgroundImageFix" result="effect1_dropShadow_1_15402"/>
<feBlend mode="normal" in="SourceGraphic" in2="effect1_dropShadow_1_15402" result="shape"/>
</filter>
</defs>
</svg>
